<mxfile host="65bd71144e" scale="5" border="30">
    <diagram id="vPCKSPUFWRb-9OJNIS15" name="k8s_architecture">
        <mxGraphModel dx="1770" dy="624" grid="1" gridSize="10" guides="1" tooltips="1" connect="1" arrows="1" fold="1" page="1" pageScale="1" pageWidth="850" pageHeight="1100" background="#FFFFFF" math="0" shadow="0">
            <root>
                <mxCell id="0"/>
                <mxCell id="1" parent="0"/>
                <mxCell id="11" value="Node" style="swimlane;rounded=1;startSize=23;container=0;" parent="1" vertex="1">
                    <mxGeometry x="-40" y="200" width="320" height="200" as="geometry"/>
                </mxCell>
                <mxCell id="15" value="Namespace" style="swimlane;rounded=1;container=0;" parent="1" vertex="1">
                    <mxGeometry x="-60" y="40" width="480" height="380" as="geometry"/>
                </mxCell>
                <mxCell id="Z1n4L7d53lUlXm8QZN24-15" value="Data Plane" style="swimlane;rounded=1;container=0;" parent="1" vertex="1">
                    <mxGeometry x="-80" width="520" height="440" as="geometry"/>
                </mxCell>
                <mxCell id="12" value="&lt;b&gt;kubelet&lt;/b&gt;&amp;nbsp;&lt;br&gt;(1x / Node)" style="rounded=1;whiteSpace=wrap;html=1;" parent="Z1n4L7d53lUlXm8QZN24-15" vertex="1">
                    <mxGeometry x="80" y="240" width="80" height="40" as="geometry"/>
                </mxCell>
                <mxCell id="13" value="&lt;b&gt;kube-proxy&lt;br&gt;&lt;/b&gt;(1x / Node)" style="rounded=1;whiteSpace=wrap;html=1;" parent="Z1n4L7d53lUlXm8QZN24-15" vertex="1">
                    <mxGeometry x="80" y="320" width="80" height="40" as="geometry"/>
                </mxCell>
                <mxCell id="6" value="Pod" style="swimlane;rounded=1;" parent="Z1n4L7d53lUlXm8QZN24-15" vertex="1">
                    <mxGeometry x="200" y="240" width="120" height="120" as="geometry">
                        <mxRectangle x="220" y="100" width="130" height="23" as="alternateBounds"/>
                    </mxGeometry>
                </mxCell>
                <mxCell id="JFjtQ3_3fZUOOB4uauIV-20" value="&lt;b&gt;Container&lt;/b&gt;" style="rounded=1;whiteSpace=wrap;html=1;" parent="6" vertex="1">
                    <mxGeometry x="20" y="50" width="80" height="40" as="geometry"/>
                </mxCell>
                <mxCell id="h6zBFYHbi13IkuGyHqoI-14" value="Pod" style="swimlane;rounded=1;container=0;" parent="6" vertex="1">
                    <mxGeometry width="120" height="120" as="geometry">
                        <mxRectangle x="220" y="100" width="130" height="23" as="alternateBounds"/>
                    </mxGeometry>
                </mxCell>
                <mxCell id="h6zBFYHbi13IkuGyHqoI-15" value="&lt;b&gt;Container&lt;/b&gt;" style="rounded=1;whiteSpace=wrap;html=1;" parent="6" vertex="1">
                    <mxGeometry x="20" y="50" width="80" height="40" as="geometry"/>
                </mxCell>
                <mxCell id="pGyoFhFBFUe1yXl2SOhE-15" value="&lt;b&gt;Deployment&lt;/b&gt;" style="rounded=1;whiteSpace=wrap;html=1;" parent="Z1n4L7d53lUlXm8QZN24-15" vertex="1">
                    <mxGeometry x="60" y="80" width="80" height="40" as="geometry"/>
                </mxCell>
                <mxCell id="SLYbQDce96DArOazTJXW-15" value="&lt;span style=&quot;color: rgb(0 , 0 , 0) ; font-family: &amp;#34;helvetica&amp;#34; ; font-size: 11px ; font-style: normal ; font-weight: 400 ; letter-spacing: normal ; text-align: center ; text-indent: 0px ; text-transform: none ; word-spacing: 0px ; background-color: rgb(255 , 255 , 255) ; display: inline ; float: none&quot;&gt;indirectly controls&lt;/span&gt;" style="edgeStyle=orthogonalEdgeStyle;curved=1;html=1;dashed=1;exitX=0.5;exitY=1;exitDx=0;exitDy=0;" edge="1" parent="Z1n4L7d53lUlXm8QZN24-15" source="pGyoFhFBFUe1yXl2SOhE-15" target="h6zBFYHbi13IkuGyHqoI-14">
                    <mxGeometry relative="1" as="geometry">
                        <Array as="points">
                            <mxPoint x="100" y="180"/>
                            <mxPoint x="260" y="180"/>
                        </Array>
                    </mxGeometry>
                </mxCell>
                <mxCell id="pGyoFhFBFUe1yXl2SOhE-14" value="&lt;b&gt;ReplicaSet&lt;/b&gt;" style="rounded=1;whiteSpace=wrap;html=1;" parent="Z1n4L7d53lUlXm8QZN24-15" vertex="1">
                    <mxGeometry x="220" y="80" width="80" height="40" as="geometry"/>
                </mxCell>
                <mxCell id="pGyoFhFBFUe1yXl2SOhE-17" value="controls" style="edgeStyle=orthogonalEdgeStyle;curved=1;html=1;entryX=0;entryY=0.5;entryDx=0;entryDy=0;" parent="Z1n4L7d53lUlXm8QZN24-15" source="pGyoFhFBFUe1yXl2SOhE-15" target="pGyoFhFBFUe1yXl2SOhE-14" edge="1">
                    <mxGeometry relative="1" as="geometry"/>
                </mxCell>
                <mxCell id="SLYbQDce96DArOazTJXW-18" value="controls" style="edgeStyle=orthogonalEdgeStyle;curved=1;html=1;" edge="1" parent="Z1n4L7d53lUlXm8QZN24-15" source="pGyoFhFBFUe1yXl2SOhE-14" target="h6zBFYHbi13IkuGyHqoI-14">
                    <mxGeometry relative="1" as="geometry">
                        <Array as="points">
                            <mxPoint x="260" y="130"/>
                            <mxPoint x="260" y="130"/>
                        </Array>
                    </mxGeometry>
                </mxCell>
                <mxCell id="JFjtQ3_3fZUOOB4uauIV-16" value="&lt;b&gt;Service&lt;/b&gt;" style="rounded=1;whiteSpace=wrap;html=1;" parent="Z1n4L7d53lUlXm8QZN24-15" vertex="1">
                    <mxGeometry x="380" y="280" width="80" height="40" as="geometry"/>
                </mxCell>
                <mxCell id="JFjtQ3_3fZUOOB4uauIV-17" style="edgeStyle=orthogonalEdgeStyle;curved=1;html=1;entryX=0;entryY=0.5;entryDx=0;entryDy=0;" parent="Z1n4L7d53lUlXm8QZN24-15" source="6" target="JFjtQ3_3fZUOOB4uauIV-16" edge="1">
                    <mxGeometry relative="1" as="geometry"/>
                </mxCell>
                <mxCell id="JFjtQ3_3fZUOOB4uauIV-18" value="&lt;b&gt;Ingress*&lt;/b&gt;" style="rounded=1;whiteSpace=wrap;html=1;" parent="Z1n4L7d53lUlXm8QZN24-15" vertex="1">
                    <mxGeometry x="380" y="160" width="80" height="40" as="geometry"/>
                </mxCell>
                <mxCell id="JFjtQ3_3fZUOOB4uauIV-19" style="edgeStyle=orthogonalEdgeStyle;curved=1;html=1;entryX=0.5;entryY=1;entryDx=0;entryDy=0;" parent="Z1n4L7d53lUlXm8QZN24-15" source="JFjtQ3_3fZUOOB4uauIV-16" target="JFjtQ3_3fZUOOB4uauIV-18" edge="1">
                    <mxGeometry relative="1" as="geometry"/>
                </mxCell>
                <mxCell id="KVBD6km7TDQGRYkFGeXN-26" value="Control Plane" style="swimlane;rounded=1;startSize=23;" vertex="1" parent="1">
                    <mxGeometry x="-680" y="10" width="480" height="420" as="geometry"/>
                </mxCell>
                <mxCell id="KVBD6km7TDQGRYkFGeXN-29" value="&lt;span style=&quot;color: rgb(0 , 0 , 0) ; font-family: &amp;#34;helvetica&amp;#34; ; font-size: 11px ; font-style: normal ; font-weight: 400 ; letter-spacing: normal ; text-align: center ; text-indent: 0px ; text-transform: none ; word-spacing: 0px ; background-color: rgb(255 , 255 , 255) ; display: inline ; float: none&quot;&gt;reads from /&lt;/span&gt;&lt;br style=&quot;color: rgb(0 , 0 , 0) ; font-family: &amp;#34;helvetica&amp;#34; ; font-size: 11px ; font-style: normal ; font-weight: 400 ; letter-spacing: normal ; text-align: center ; text-indent: 0px ; text-transform: none ; word-spacing: 0px&quot;&gt;&lt;span style=&quot;color: rgb(0 , 0 , 0) ; font-family: &amp;#34;helvetica&amp;#34; ; font-size: 11px ; font-style: normal ; font-weight: 400 ; letter-spacing: normal ; text-align: center ; text-indent: 0px ; text-transform: none ; word-spacing: 0px ; background-color: rgb(255 , 255 , 255) ; display: inline ; float: none&quot;&gt;writes data to&lt;/span&gt;" style="edgeStyle=orthogonalEdgeStyle;html=1;entryX=0;entryY=0.5;entryDx=0;entryDy=0;curved=1;" edge="1" parent="KVBD6km7TDQGRYkFGeXN-26" source="KVBD6km7TDQGRYkFGeXN-23" target="KVBD6km7TDQGRYkFGeXN-19">
                    <mxGeometry relative="1" as="geometry"/>
                </mxCell>
                <mxCell id="KVBD6km7TDQGRYkFGeXN-23" value="etcd" style="swimlane;rounded=1;startSize=23;" vertex="1" parent="KVBD6km7TDQGRYkFGeXN-26">
                    <mxGeometry x="40" y="220" width="200" height="160" as="geometry"/>
                </mxCell>
                <mxCell id="KVBD6km7TDQGRYkFGeXN-24" value="&lt;b&gt;ConfigMap&lt;/b&gt;" style="rounded=1;whiteSpace=wrap;html=1;" vertex="1" parent="KVBD6km7TDQGRYkFGeXN-23">
                    <mxGeometry x="40" y="40" width="80" height="40" as="geometry"/>
                </mxCell>
                <mxCell id="KVBD6km7TDQGRYkFGeXN-25" value="&lt;b&gt;Secret&lt;/b&gt;" style="rounded=1;whiteSpace=wrap;html=1;" vertex="1" parent="KVBD6km7TDQGRYkFGeXN-23">
                    <mxGeometry x="80" y="100" width="80" height="40" as="geometry"/>
                </mxCell>
                <mxCell id="KVBD6km7TDQGRYkFGeXN-19" value="&lt;b&gt;API Server&lt;/b&gt;" style="rounded=1;whiteSpace=wrap;html=1;" vertex="1" parent="KVBD6km7TDQGRYkFGeXN-26">
                    <mxGeometry x="360" y="180" width="80" height="80" as="geometry"/>
                </mxCell>
                <mxCell id="KVBD6km7TDQGRYkFGeXN-21" value="&lt;b&gt;Controller Manager&lt;/b&gt;" style="rounded=1;whiteSpace=wrap;html=1;" vertex="1" parent="KVBD6km7TDQGRYkFGeXN-26">
                    <mxGeometry x="360" y="60" width="80" height="40" as="geometry"/>
                </mxCell>
                <mxCell id="KVBD6km7TDQGRYkFGeXN-20" value="watches&lt;br&gt;for changes" style="edgeStyle=orthogonalEdgeStyle;curved=1;html=1;entryX=0.5;entryY=0;entryDx=0;entryDy=0;" edge="1" parent="KVBD6km7TDQGRYkFGeXN-26" source="KVBD6km7TDQGRYkFGeXN-21" target="KVBD6km7TDQGRYkFGeXN-19">
                    <mxGeometry relative="1" as="geometry"/>
                </mxCell>
                <mxCell id="KVBD6km7TDQGRYkFGeXN-18" value="&lt;b&gt;Scheduler&lt;br&gt;&lt;/b&gt;" style="rounded=1;whiteSpace=wrap;html=1;" vertex="1" parent="KVBD6km7TDQGRYkFGeXN-26">
                    <mxGeometry x="360" y="340" width="80" height="40" as="geometry"/>
                </mxCell>
                <mxCell id="KVBD6km7TDQGRYkFGeXN-31" value="&lt;span style=&quot;color: rgb(0 , 0 , 0) ; font-family: &amp;#34;helvetica&amp;#34; ; font-size: 11px ; font-style: normal ; font-weight: 400 ; letter-spacing: normal ; text-align: center ; text-indent: 0px ; text-transform: none ; word-spacing: 0px ; background-color: rgb(255 , 255 , 255) ; display: inline ; float: none&quot;&gt;watches&lt;/span&gt;&lt;br style=&quot;color: rgb(0 , 0 , 0) ; font-family: &amp;#34;helvetica&amp;#34; ; font-size: 11px ; font-style: normal ; font-weight: 400 ; letter-spacing: normal ; text-align: center ; text-indent: 0px ; text-transform: none ; word-spacing: 0px&quot;&gt;&lt;span style=&quot;color: rgb(0 , 0 , 0) ; font-family: &amp;#34;helvetica&amp;#34; ; font-size: 11px ; font-style: normal ; font-weight: 400 ; letter-spacing: normal ; text-align: center ; text-indent: 0px ; text-transform: none ; word-spacing: 0px ; background-color: rgb(255 , 255 , 255) ; display: inline ; float: none&quot;&gt;for changes&lt;/span&gt;" style="edgeStyle=orthogonalEdgeStyle;curved=1;html=1;entryX=0;entryY=0.5;entryDx=0;entryDy=0;" edge="1" parent="KVBD6km7TDQGRYkFGeXN-26" source="KVBD6km7TDQGRYkFGeXN-16" target="KVBD6km7TDQGRYkFGeXN-19">
                    <mxGeometry relative="1" as="geometry"/>
                </mxCell>
                <mxCell id="KVBD6km7TDQGRYkFGeXN-16" value="&lt;b&gt;Cloud Controller*&lt;/b&gt;" style="rounded=1;whiteSpace=wrap;html=1;" vertex="1" parent="KVBD6km7TDQGRYkFGeXN-26">
                    <mxGeometry x="100" y="60" width="80" height="40" as="geometry"/>
                </mxCell>
                <mxCell id="KVBD6km7TDQGRYkFGeXN-27" value="&lt;span style=&quot;color: rgb(0 , 0 , 0) ; font-family: &amp;#34;helvetica&amp;#34; ; font-size: 11px ; font-style: normal ; font-weight: 400 ; letter-spacing: normal ; text-align: center ; text-indent: 0px ; text-transform: none ; word-spacing: 0px ; background-color: rgb(255 , 255 , 255) ; display: inline ; float: none&quot;&gt;watches for changes&lt;/span&gt;" style="edgeStyle=none;html=1;" edge="1" parent="1" source="KVBD6km7TDQGRYkFGeXN-18">
                    <mxGeometry relative="1" as="geometry">
                        <mxPoint x="-280" y="270" as="targetPoint"/>
                    </mxGeometry>
                </mxCell>
                <mxCell id="KVBD6km7TDQGRYkFGeXN-33" value="controls" style="edgeStyle=orthogonalEdgeStyle;curved=1;html=1;entryX=0;entryY=0.5;entryDx=0;entryDy=0;" edge="1" parent="1" source="KVBD6km7TDQGRYkFGeXN-19" target="12">
                    <mxGeometry relative="1" as="geometry"/>
                </mxCell>
                <mxCell id="KVBD6km7TDQGRYkFGeXN-34" value="controls" style="edgeStyle=orthogonalEdgeStyle;curved=1;html=1;entryX=0;entryY=0.5;entryDx=0;entryDy=0;" edge="1" parent="1" source="KVBD6km7TDQGRYkFGeXN-19" target="13">
                    <mxGeometry relative="1" as="geometry"/>
                </mxCell>
            </root>
        </mxGraphModel>
    </diagram>
    <diagram id="XbA0uIqEg7AaF9tX0DSb" name="control plane">
        <mxGraphModel dx="2261" dy="624" grid="1" gridSize="10" guides="1" tooltips="1" connect="1" arrows="1" fold="1" page="1" pageScale="1" pageWidth="850" pageHeight="1100" math="0" shadow="0">
            <root>
                <mxCell id="8I_JmRNnupfbHmlrHGWc-0"/>
                <mxCell id="8I_JmRNnupfbHmlrHGWc-1" parent="8I_JmRNnupfbHmlrHGWc-0"/>
                <mxCell id="NnrZnB-4yMqVigNS2OZB-0" value="Control Plane" style="swimlane;rounded=1;startSize=23;" vertex="1" parent="8I_JmRNnupfbHmlrHGWc-1">
                    <mxGeometry x="-680" y="10" width="480" height="420" as="geometry"/>
                </mxCell>
                <mxCell id="NnrZnB-4yMqVigNS2OZB-1" value="&lt;span style=&quot;color: rgb(0 , 0 , 0) ; font-family: &amp;#34;helvetica&amp;#34; ; font-size: 11px ; font-style: normal ; font-weight: 400 ; letter-spacing: normal ; text-align: center ; text-indent: 0px ; text-transform: none ; word-spacing: 0px ; background-color: rgb(255 , 255 , 255) ; display: inline ; float: none&quot;&gt;reads from /&lt;/span&gt;&lt;br style=&quot;color: rgb(0 , 0 , 0) ; font-family: &amp;#34;helvetica&amp;#34; ; font-size: 11px ; font-style: normal ; font-weight: 400 ; letter-spacing: normal ; text-align: center ; text-indent: 0px ; text-transform: none ; word-spacing: 0px&quot;&gt;&lt;span style=&quot;color: rgb(0 , 0 , 0) ; font-family: &amp;#34;helvetica&amp;#34; ; font-size: 11px ; font-style: normal ; font-weight: 400 ; letter-spacing: normal ; text-align: center ; text-indent: 0px ; text-transform: none ; word-spacing: 0px ; background-color: rgb(255 , 255 , 255) ; display: inline ; float: none&quot;&gt;writes data to&lt;/span&gt;" style="edgeStyle=orthogonalEdgeStyle;html=1;entryX=0;entryY=0.5;entryDx=0;entryDy=0;curved=1;" edge="1" parent="NnrZnB-4yMqVigNS2OZB-0" source="NnrZnB-4yMqVigNS2OZB-2" target="NnrZnB-4yMqVigNS2OZB-5">
                    <mxGeometry relative="1" as="geometry"/>
                </mxCell>
                <mxCell id="NnrZnB-4yMqVigNS2OZB-2" value="etcd" style="swimlane;rounded=1;startSize=23;" vertex="1" parent="NnrZnB-4yMqVigNS2OZB-0">
                    <mxGeometry x="40" y="220" width="200" height="160" as="geometry"/>
                </mxCell>
                <mxCell id="NnrZnB-4yMqVigNS2OZB-3" value="&lt;b&gt;ConfigMap&lt;/b&gt;" style="rounded=1;whiteSpace=wrap;html=1;" vertex="1" parent="NnrZnB-4yMqVigNS2OZB-2">
                    <mxGeometry x="40" y="40" width="80" height="40" as="geometry"/>
                </mxCell>
                <mxCell id="NnrZnB-4yMqVigNS2OZB-4" value="&lt;b&gt;Secret&lt;/b&gt;" style="rounded=1;whiteSpace=wrap;html=1;" vertex="1" parent="NnrZnB-4yMqVigNS2OZB-2">
                    <mxGeometry x="80" y="100" width="80" height="40" as="geometry"/>
                </mxCell>
                <mxCell id="NnrZnB-4yMqVigNS2OZB-5" value="&lt;b&gt;API Server&lt;/b&gt;" style="rounded=1;whiteSpace=wrap;html=1;" vertex="1" parent="NnrZnB-4yMqVigNS2OZB-0">
                    <mxGeometry x="360" y="180" width="80" height="80" as="geometry"/>
                </mxCell>
                <mxCell id="NnrZnB-4yMqVigNS2OZB-6" value="&lt;b&gt;Controller Manager&lt;/b&gt;" style="rounded=1;whiteSpace=wrap;html=1;" vertex="1" parent="NnrZnB-4yMqVigNS2OZB-0">
                    <mxGeometry x="360" y="60" width="80" height="40" as="geometry"/>
                </mxCell>
                <mxCell id="NnrZnB-4yMqVigNS2OZB-7" value="watches&lt;br&gt;for changes" style="edgeStyle=orthogonalEdgeStyle;curved=1;html=1;entryX=0.5;entryY=0;entryDx=0;entryDy=0;" edge="1" parent="NnrZnB-4yMqVigNS2OZB-0" source="NnrZnB-4yMqVigNS2OZB-6" target="NnrZnB-4yMqVigNS2OZB-5">
                    <mxGeometry relative="1" as="geometry"/>
                </mxCell>
                <mxCell id="NnrZnB-4yMqVigNS2OZB-8" value="&lt;b&gt;Scheduler&lt;br&gt;&lt;/b&gt;" style="rounded=1;whiteSpace=wrap;html=1;" vertex="1" parent="NnrZnB-4yMqVigNS2OZB-0">
                    <mxGeometry x="360" y="340" width="80" height="40" as="geometry"/>
                </mxCell>
                <mxCell id="NnrZnB-4yMqVigNS2OZB-9" value="&lt;span style=&quot;color: rgb(0 , 0 , 0) ; font-family: &amp;#34;helvetica&amp;#34; ; font-size: 11px ; font-style: normal ; font-weight: 400 ; letter-spacing: normal ; text-align: center ; text-indent: 0px ; text-transform: none ; word-spacing: 0px ; background-color: rgb(255 , 255 , 255) ; display: inline ; float: none&quot;&gt;watches&lt;/span&gt;&lt;br style=&quot;color: rgb(0 , 0 , 0) ; font-family: &amp;#34;helvetica&amp;#34; ; font-size: 11px ; font-style: normal ; font-weight: 400 ; letter-spacing: normal ; text-align: center ; text-indent: 0px ; text-transform: none ; word-spacing: 0px&quot;&gt;&lt;span style=&quot;color: rgb(0 , 0 , 0) ; font-family: &amp;#34;helvetica&amp;#34; ; font-size: 11px ; font-style: normal ; font-weight: 400 ; letter-spacing: normal ; text-align: center ; text-indent: 0px ; text-transform: none ; word-spacing: 0px ; background-color: rgb(255 , 255 , 255) ; display: inline ; float: none&quot;&gt;for changes&lt;/span&gt;" style="edgeStyle=orthogonalEdgeStyle;curved=1;html=1;entryX=0;entryY=0.5;entryDx=0;entryDy=0;" edge="1" parent="NnrZnB-4yMqVigNS2OZB-0" source="NnrZnB-4yMqVigNS2OZB-10" target="NnrZnB-4yMqVigNS2OZB-5">
                    <mxGeometry relative="1" as="geometry"/>
                </mxCell>
                <mxCell id="NnrZnB-4yMqVigNS2OZB-10" value="&lt;b&gt;Cloud Controller*&lt;/b&gt;" style="rounded=1;whiteSpace=wrap;html=1;" vertex="1" parent="NnrZnB-4yMqVigNS2OZB-0">
                    <mxGeometry x="100" y="60" width="80" height="40" as="geometry"/>
                </mxCell>
                <mxCell id="NnrZnB-4yMqVigNS2OZB-11" value="&lt;span style=&quot;color: rgb(0 , 0 , 0) ; font-family: &amp;#34;helvetica&amp;#34; ; font-size: 11px ; font-style: normal ; font-weight: 400 ; letter-spacing: normal ; text-align: center ; text-indent: 0px ; text-transform: none ; word-spacing: 0px ; background-color: rgb(255 , 255 , 255) ; display: inline ; float: none&quot;&gt;watches for changes&lt;/span&gt;" style="edgeStyle=none;html=1;" edge="1" parent="8I_JmRNnupfbHmlrHGWc-1" source="NnrZnB-4yMqVigNS2OZB-8">
                    <mxGeometry relative="1" as="geometry">
                        <mxPoint x="-280" y="270" as="targetPoint"/>
                    </mxGeometry>
                </mxCell>
            </root>
        </mxGraphModel>
    </diagram>
</mxfile>